# xmcd CD database file
# Generated: Wed Jul 10 03:49:35 2002 by KSCD
# 
# Track frame offsets:
#       150
#       1971
#       5827
#       17489
#       25437
#       38372
#       46326
#       59412
#       67315
#       80149
#       88270
#       101174
#       109633
#       128258
#       138460
#       151447
#       159781
#       172634
#       180921
#       196851
#       207670
#       219727
#       228000
#       234277
#       238899
#       252822
#
# Disc length: 3482 seconds
#
# Revision: 1
# Processed by: cddbd v1.4PL0 Copyright (c) Steve Scherf et al.
# Submitted via: Kscd 1.3.3
#
DISCID=4f0d981a
DTITLE=Steve Kaufman - 4 Hour Banjo Bluegrass Workout
DYEAR=1900
DGENRE=
TTITLE0=Intro
TTITLE1=Tuning Notes
TTITLE2=Alabama Jubilee (S)
TTITLE3=Alabama Jubilee (F)
TTITLE4=Arkansas Traveler (S)
TTITLE5=Arkansas Traveler (F)
TTITLE6=Big Sandy River (S)
TTITLE7=Big Sandy River (F)
TTITLE8=Bill Cheatham (S)
TTITLE9=Bill Cheatham (F)
TTITLE10=Billy In The Lowground (S)
TTITLE11=Billy In The Lowground (F)
TTITLE12=Black Mountain Rag (S)
TTITLE13=Black Mountain Rag (F)
TTITLE14=Blackberry Blossom (S)
TTITLE15=Blackberry Blossom (F)
TTITLE16=Blackberry Rag (S)
TTITLE17=Blackberry Rag (F)
TTITLE18=Cherokee Shuffle (S)
TTITLE19=Cherokee Shuffle (F)
TTITLE20=Cricket On The Hearth (S)
TTITLE21=Cricket On The Hearth (F)
TTITLE22=Cripple Creek (S)
TTITLE23=Cripple Creek (F)
TTITLE24=Cuckoo's Nest (S)
TTITLE25=Cuckoo's Nest (F)
EXTD=
EXTT0=
EXTT1=
EXTT2=
EXTT3=
EXTT4=
EXTT5=
EXTT6=
EXTT7=
EXTT8=
EXTT9=
EXTT10=
EXTT11=
EXTT12=
EXTT13=
EXTT14=
EXTT15=
EXTT16=
EXTT17=
EXTT18=
EXTT19=
EXTT20=
EXTT21=
EXTT22=
EXTT23=
EXTT24=
EXTT25=
PLAYORDER=
